<svg width="896" height="346" viewBox="0 0 896 346" fill="none" xmlns="http://www.w3.org/2000/svg">
<path d="M127.571 72.6352C127.571 70.1103 125.525 68.0635 123 68.0635C120.475 68.0635 118.428 70.1102 118.428 72.6352C118.428 75.1598 120.475 77.2067 123 77.2067C125.525 77.2067 127.571 75.1598 127.571 72.6352Z" fill="white"/>
<path d="M67.0634 123.963C67.0634 126.488 69.1103 128.535 71.6348 128.535C74.1596 128.535 76.2064 126.488 76.2063 123.963C76.2063 121.439 74.1596 119.392 71.6348 119.392C69.1103 119.392 67.0634 121.439 67.0634 123.963Z" fill="white"/>
<path d="M123 180.368C120.475 180.368 118.428 178.321 118.428 175.796C118.428 173.272 120.475 171.225 123 171.225C125.525 171.225 127.571 173.271 127.571 175.796C127.571 178.321 125.525 180.368 123 180.368Z" fill="white"/>
<path d="M135.906 119.517L160.567 96.4695C162.682 94.3546 162.682 90.9259 160.567 88.811C158.452 86.6962 155.023 86.6962 152.908 88.811L128.282 111.825C124.986 110.488 121.277 110.481 117.975 111.803L101.001 96.4413C98.8864 94.3264 95.4577 94.3264 93.3428 96.4413C91.2282 98.5558 91.2281 101.985 93.3429 104.099L110.317 119.461C108.331 124.422 109.346 130.305 113.364 134.323C118.741 139.7 127.46 139.7 132.837 134.323C136.84 130.32 137.862 124.466 135.906 119.517Z" fill="white"/>
<path d="M174.365 128.571C171.84 128.571 169.793 126.525 169.793 124C169.793 121.475 171.84 119.428 174.365 119.428C176.89 119.428 178.936 121.475 178.936 124C178.936 126.525 176.89 128.571 174.365 128.571Z" fill="white"/>
<path fill-rule="evenodd" clip-rule="evenodd" d="M117.49 39.256C120.977 37.5813 125.023 37.5813 128.51 39.256L186.428 67.0721C189.968 68.7722 192.547 72.0135 193.43 75.8739L207.669 138.091C208.56 141.984 207.629 146.075 205.144 149.182L165.165 199.179C162.727 202.228 159.056 204 155.178 204H90.8223C86.944 204 83.2735 202.228 80.8352 199.179L40.8559 149.182C38.3712 146.075 37.4398 141.984 38.3307 138.091L52.57 75.8739C53.4535 72.0135 56.0319 68.7722 59.5718 67.0721L117.49 39.256ZM58.9999 124C58.9999 88.6537 87.6537 60 123 60C158.346 60 187 88.6537 187 124C187 159.346 158.346 188 123 188C87.6537 188 58.9999 159.346 58.9999 124Z" fill="white"/>
<path fill-rule="evenodd" clip-rule="evenodd" d="M129.937 17.5889C125.547 15.4704 120.453 15.4704 116.063 17.5889L43.1551 52.778C38.699 54.9287 35.4532 59.0291 34.341 63.9127L16.4163 142.621C15.2948 147.546 16.4672 152.721 19.5951 156.652L57.0005 203.662L57.0011 279.832C57.0012 282.391 58.2263 284.797 60.2969 286.302L118.296 328.468C121.101 330.507 124.9 330.507 127.704 328.468L185.703 286.302C187.774 284.797 188.999 282.391 188.999 279.832L189 203.662L226.405 156.652C229.533 152.721 230.705 147.546 229.584 142.621L211.659 63.9127C210.547 59.0291 207.301 54.9287 202.845 52.778L129.937 17.5889ZM72.0009 267.869L72.0005 222.07C73.4839 223.356 75.1793 224.354 77.0005 225.023L77.0008 264.26C77.0008 266.819 78.2231 269.223 80.2898 270.73L118.289 298.434C121.097 300.481 124.904 300.481 127.711 298.434L165.71 270.73C167.777 269.223 168.999 266.819 168.999 264.26L169 225.023C170.821 224.354 172.516 223.356 174 222.07L173.999 267.869C173.999 270.438 172.768 272.85 170.688 274.355L127.689 305.48C124.891 307.505 121.11 307.505 118.311 305.48L75.3121 274.355C73.2325 272.85 72.0009 270.438 72.0009 267.869ZM122 247.869V226H124V247.869C131.265 248.382 137 254.442 137 261.843C137 269.58 130.732 275.852 123 275.852C115.268 275.852 109 269.58 109 261.843C109 254.442 114.735 248.382 122 247.869ZM129.032 33.3468C125.299 31.5511 120.967 31.5511 117.234 33.3468L55.2276 63.1737C51.4378 64.9967 48.6774 68.4723 47.7315 72.6118L32.4871 139.326C31.5333 143.501 32.5304 147.888 35.1906 151.22L77.9919 204.83C80.6023 208.1 84.532 210 88.6839 210H157.582C161.734 210 165.664 208.1 168.274 204.83L211.076 151.22C213.736 147.888 214.733 143.501 213.779 139.326L198.535 72.6117C197.589 68.4723 194.828 64.9967 191.039 63.1737L129.032 33.3468Z" fill="white"/>
<path d="M321.639 240.003V187.771H387.846V160.798H321.639V130.187H389.345V103H294V240.003H321.639Z" fill="white"/>
<path d="M442.965 240.431C448.107 242.144 453.606 243 459.463 243C465.319 243 470.818 242.144 475.961 240.431C481.103 238.719 485.602 236.221 489.459 232.939C493.458 229.514 496.672 225.304 499.101 220.309C501.672 215.314 503.243 209.534 503.814 202.969C503.957 201.685 504.028 200.044 504.028 198.046C504.171 196.048 504.243 193.979 504.243 191.838V145.813H476.818V190.339C476.818 192.337 476.746 194.264 476.603 196.119C476.603 197.975 476.532 199.402 476.389 200.401C476.103 201.97 475.675 203.683 475.103 205.538C474.532 207.393 473.604 209.106 472.318 210.676C471.033 212.103 469.39 213.316 467.39 214.315C465.39 215.314 462.819 215.813 459.677 215.813C456.534 215.813 453.892 215.314 451.749 214.315C449.607 213.316 447.893 212.103 446.607 210.676C445.321 209.106 444.393 207.393 443.822 205.538C443.25 203.683 442.822 201.899 442.536 200.187C442.393 199.045 442.25 197.689 442.108 196.119C442.108 194.407 442.036 192.623 441.893 190.768V145.813H414.468V192.266C414.611 194.264 414.682 196.191 414.682 198.046C414.825 199.901 414.968 201.471 415.111 202.755C415.682 209.605 417.182 215.528 419.61 220.523C422.181 225.518 425.395 229.728 429.252 233.153C433.252 236.435 437.822 238.861 442.965 240.431Z" fill="white"/>
<path d="M531.461 145.813H558.029V165.936C559.458 161.512 561.172 158.015 563.172 155.446C565.314 152.735 567.671 150.666 570.242 149.239C572.813 147.811 575.67 146.884 578.813 146.456C581.955 146.028 585.312 145.813 588.883 145.813V171.716C583.312 171.716 578.527 172.643 574.527 174.498C570.671 176.354 567.528 178.923 565.1 182.205C562.672 185.487 560.886 189.34 559.743 193.765C558.601 198.189 558.029 202.969 558.029 208.107V240.003H531.461V145.813Z" fill="white"/>
<path d="M640.535 131.899C643.82 129.045 645.463 125.334 645.463 120.768C645.463 117.057 644.035 113.632 641.178 110.492C638.464 107.21 634.822 105.569 630.251 105.569C626.108 105.569 622.537 107.067 619.538 110.064C616.538 112.918 615.038 116.486 615.038 120.768C615.038 124.621 616.395 128.117 619.109 131.257C621.966 134.397 625.68 135.966 630.251 135.966C633.964 135.966 637.393 134.611 640.535 131.899Z" fill="white"/>
<path d="M616.11 145.813V240.003H644.392V145.813H616.11Z" fill="white"/>
<path d="M677.375 103H703.943L703.729 175.355L752.366 126.119L768.435 148.168L733.725 182.633L775.506 240.003H741.653L713.585 201.685L703.729 211.532V240.003H677.161L677.375 103Z" fill="white"/>
<path fill-rule="evenodd" clip-rule="evenodd" d="M813.794 238.505C819.65 240.931 825.721 242.144 832.006 242.144C838.291 242.144 844.29 240.931 850.004 238.505C855.86 236.078 861.002 232.725 865.43 228.443C869.858 224.162 873.358 219.096 875.929 213.245C878.643 207.393 880 201.043 880 194.193C880 187.057 878.786 180.492 876.358 174.498C873.929 168.362 870.573 163.153 866.287 158.872C862.002 154.448 856.931 151.022 851.075 148.596C845.219 146.17 838.862 144.957 832.006 144.957C825.15 144.957 818.793 146.17 812.937 148.596C807.08 151.022 802.01 154.448 797.724 158.872C793.439 163.153 790.082 168.362 787.654 174.498C785.226 180.492 784.012 187.057 784.012 194.193C784.012 201.043 785.297 207.393 787.868 213.245C790.582 219.096 794.153 224.162 798.581 228.443C803.009 232.725 808.08 236.078 813.794 238.505ZM817.008 177.924C821.007 173.642 826.007 171.502 832.006 171.502C837.862 171.502 842.79 173.642 846.79 177.924C850.789 182.062 852.789 187.414 852.789 193.979C852.789 196.833 852.218 199.616 851.075 202.327C850.075 204.896 848.647 207.179 846.79 209.177C844.933 211.175 842.719 212.745 840.148 213.887C837.577 215.029 834.863 215.599 832.006 215.599C829.006 215.599 826.221 215.029 823.65 213.887C821.222 212.745 819.079 211.175 817.222 209.177C815.365 207.179 813.865 204.896 812.723 202.327C811.723 199.616 811.223 196.833 811.223 193.979C811.223 187.414 813.151 182.062 817.008 177.924Z" fill="white"/>
</svg>
